# xmcd
#
# Track frame offsets:
#	150
#	11810
#	23250
#	34677
#	45782
#	57290
#	69070
#	81125
#	91972
#	103040
#	115580
#	127327
#	138545
#	151110
#	164430
#	176572
#	188207
#	201760
#	215480
#	228152
#	240702
#	253945
#	266657
#	279542
#	291397
#	304367
#	318045
#	331590
#	343357
#
# Disc length: 4742 seconds
#
# Revision: 1
# Processed by: cddbd v1.4PL0 Copyright (c) Steve Scherf et al.
# Submitted via: audiograbber 1.80
#
DISCID=9812841d
DTITLE=tex ritter - blood on the saddle disc 2
DYEAR=1900
DGENRE=
TTITLE0=arizona days 1937
TTITLE1=jailhouse lament 1937
TTITLE2=(i'm) hitting the trail (for home) 1937
TTITLE3=i'm a natural born cowboy 1937
TTITLE4=ride, ride, ride 1937
TTITLE5=ridin' down the trail to albuquerque 1937
TTITLE6=sing, cowboy, sing 1937
TTITLE7=down the colorado trail 1937
TTITLE8=when it's lamp lightin' time in the valley 1939
TTITLE9=singin' in the saddle 1939
TTITLE10=sundown on the prairie 1939
TTITLE11=viva tequila 1939
TTITLE12=(i got spurs) jingle, jangle, jingle 1942
TTITLE13=someone 1942
TTITLE14=goodbye my little cherokee 1942
TTITLE15=i've done the best i could 1942
TTITLE16=there's a new moon over my shoulder 1944
TTITLE17=have i stayed away too long 1943
TTITLE18=i'm wastin' my tears on you 1944
TTITLE19=there's a gold star in her window 1943
TTITLE20=jealous heart 1944
TTITLE21=i'm gonna leave you like i found you 1944
TTITLE22=we live in two different worlds 1944
TTITLE23=how was i to know 1999
TTITLE24=you will have to pay (for your yesterday) 1944
TTITLE25=long time gone 1944
TTITLE26=in case you change your mind 1983
TTITLE27=it's never too late 1948
TTITLE28=how was i to know 1999
EXTD=
EXTT0=
EXTT1=
EXTT2=
EXTT3=
EXTT4=
EXTT5=
EXTT6=
EXTT7=
EXTT8=
EXTT9=
EXTT10=
EXTT11=
EXTT12=
EXTT13=
EXTT14=
EXTT15=
EXTT16=
EXTT17=
EXTT18=
EXTT19=
EXTT20=
EXTT21=
EXTT22=
EXTT23=
EXTT24=
EXTT25=
EXTT26=
EXTT27=
EXTT28=
PLAYORDER=
